<?xml version="1.0" encoding="UTF-8" standalone="no"?>
<!-- Created with Inkscape (http://www.inkscape.org/) -->

<svg
   xmlns:dc="http://purl.org/dc/elements/1.1/"
   xmlns:cc="http://creativecommons.org/ns#"
   xmlns:rdf="http://www.w3.org/1999/02/22-rdf-syntax-ns#"
   xmlns:svg="http://www.w3.org/2000/svg"
   xmlns="http://www.w3.org/2000/svg"
   xmlns:sodipodi="http://sodipodi.sourceforge.net/DTD/sodipodi-0.dtd"
   xmlns:inkscape="http://www.inkscape.org/namespaces/inkscape"
   version="1.1"
   id="svg2"
   width="510"
   height="510"
   viewBox="0 0 510 510"
   sodipodi:docname="RW-W.svg"
   inkscape:version="0.92.5 (2060ec1f9f, 2020-04-08)">
  <metadata
     id="metadata8">
    <rdf:RDF>
      <cc:Work
         rdf:about="">
        <dc:format>image/svg+xml</dc:format>
        <dc:type
           rdf:resource="http://purl.org/dc/dcmitype/StillImage" />
      </cc:Work>
    </rdf:RDF>
  </metadata>
  <defs
     id="defs6" />
  <sodipodi:namedview
     pagecolor="#ffffff"
     bordercolor="#666666"
     borderopacity="1"
     objecttolerance="10"
     gridtolerance="10"
     guidetolerance="10"
     inkscape:pageopacity="0"
     inkscape:pageshadow="2"
     inkscape:window-width="1280"
     inkscape:window-height="961"
     id="namedview4"
     showgrid="false"
     inkscape:zoom="0.3272102"
     inkscape:cx="1086.6651"
     inkscape:cy="-241.58111"
     inkscape:window-x="-8"
     inkscape:window-y="-8"
     inkscape:window-maximized="1"
     inkscape:current-layer="svg2" />
  <g
     id="g12"
     transform="matrix(1.4254157,0,0,1.8667215,-111.18548,-215.94071)">
    <path
       style="fill:#cdcdcd"
       d="M 185.04113,310.26475 C 175.98875,290.59414 165.36716,267.3 161.43759,258.5 c -3.92957,-8.8 -9.51174,-20.95 -12.40483,-27 -5.8427,-12.21821 -27.40658,-59.06558 -29.55743,-64.2133 -1.62439,-3.88769 -1.23809,-3.99935 6.19712,-1.79133 9.70841,2.88309 12.90023,6.94441 23.35002,29.71099 5.12309,11.1615 12.3125,26.59364 15.97647,34.29364 3.66397,7.7 8.06448,17.15 9.77892,21 1.71444,3.85 10.28227,22.65612 19.03962,41.79138 l 15.92246,34.79138 6.24065,-14.79138 c 3.43236,-8.13526 8.72862,-20.41638 11.76947,-27.29138 3.04084,-6.875 6.38827,-14.5016 7.43871,-16.948 l 1.9099,-4.44799 3.55236,7.94799 c 1.9538,4.3714 3.75129,8.848 3.99442,9.948 0.25404,1.14933 -5.21222,15.18535 -12.85169,33 l -13.29376,31 -8.5,0.26475 -8.5,0.26475 z M 291.94208,341.75 c -1.11755,-2.3375 -12.959,-29.225 -26.31431,-59.75 l -24.28239,-55.5 19.07731,-0.52656 c 12.18667,-0.33637 20.1609,-0.99062 22.07731,-1.81134 4.10324,-1.75724 9.26556,-6.86685 11.68763,-11.56828 4.31197,-8.36988 1.5756,-21.62168 -5.59382,-27.09007 -6.71248,-5.11985 -8.96165,-5.50335 -32.31169,-5.50933 -23.07227,-0.006 -27.19022,-0.58169 -33.35968,-4.66445 C 219.49469,173.0616 214,166.47581 214,164.63578 c 0,-0.41619 15.1875,-0.61037 33.75,-0.43151 39.41624,0.37981 40.63521,0.6288 51.26688,10.47184 11.48845,10.63628 15.52214,24.76643 11.11921,38.95098 C 304.9064,230.47519 290.20266,241 271.89466,241 268.1026,241 265,241.2631 265,241.58467 c 0,0.75999 33.73148,77.93474 35.86946,82.06627 l 1.63054,3.15093 11.94647,-26.15093 C 321.01703,286.26792 328.71925,269.325 331.5625,263 c 2.84326,-6.325 7.09325,-15.55 9.44444,-20.5 2.35118,-4.95 10.30453,-22.04721 17.67411,-37.99381 14.04308,-30.38698 16.23376,-33.83426 23.84135,-37.51703 4.17721,-2.02216 10.4776,-2.698 10.4776,-1.12395 0,0.47587 -7.92117,17.91337 -17.60261,38.75 -9.68143,20.83664 -19.85,42.83479 -22.59681,48.88479 -20.17508,44.43674 -41.28498,90.20709 -42.08572,91.25 -0.62445,0.8133 -3.71639,1.25 -8.8503,1.25 h -7.89055 z"
       id="path26"
       inkscape:connector-curvature="0" />
    <path
       style="fill:#adadad"
       d="M 201.34563,344.78795 C 200.3937,343.51383 179.14817,297.52513 159.40406,254 c -5.61362,-12.375 -16.79346,-36.66619 -24.8441,-53.98042 -8.05063,-17.31423 -14.89346,-32.50016 -15.20627,-33.74651 -0.52611,-2.09617 -0.31701,-2.22064 2.78878,-1.66005 5.66847,1.02316 11.6907,4.37415 15.17364,8.44318 1.8268,2.13421 7.07255,12.10715 11.65722,22.16209 4.58467,10.05494 11.17407,24.24271 14.64312,31.52838 3.46905,7.28566 8.08964,17.18566 10.26797,22 9.41882,20.81652 35.42667,77.77849 35.63209,78.04081 0.12381,0.15811 3.92823,-8.39189 8.45427,-19 4.52603,-10.60811 9.73024,-22.66248 11.5649,-26.78748 1.83466,-4.125 4.30142,-9.75 5.48169,-12.5 l 2.14594,-5 2.25009,5.5 c 1.23755,3.025 3.06305,7.21061 4.05666,9.30136 2.11505,4.45047 3.25622,1.08868 -14.32451,42.19864 l -10.69129,25 -8.07319,0.28795 c -5.70456,0.20348 -8.3555,-0.0899 -9.03544,-1 z m 91.72253,-0.6606 C 292.08817,342.29623 280.06892,314.93359 267.53526,286 264.0806,278.025 256.92189,261.69955 251.62703,249.72123 246.33216,237.74291 242,227.50541 242,226.97123 242,226.38019 248.80119,226 259.37427,226 c 18.33109,0 23.05441,-0.83224 28.34585,-4.99448 9.44646,-7.4306 11.50372,-20.93305 4.7537,-31.20024 -1.33597,-2.0321 -4.57661,-4.9571 -7.20143,-6.5 L 280.5,180.5 l -25,-0.51763 c -26.60815,-0.55092 -27.42382,-0.69753 -34.47815,-6.19715 -2.84658,-2.21922 -6.0056,-6.70163 -6.01526,-8.53522 -0.005,-0.97252 6.59735,-1.24615 29.74341,-1.23264 40.36489,0.0236 45.99681,1.36023 57.15034,13.56397 6.8642,7.51054 9.51106,14.56266 9.54033,25.41867 0.0202,7.48277 -0.35481,9.3019 -3.13328,15.20071 -4.03262,8.56142 -10.56698,15.08941 -19.10668,19.08804 -5.59877,2.62158 -8.19997,3.20338 -15.81747,3.53785 l -9.11676,0.4003 1.301,2.63655 c 1.09261,2.21425 30.52188,69.25297 35.17907,80.13655 l 1.49769,3.5 2.25339,-5 c 1.23937,-2.75 7.31918,-16.025 13.5107,-29.5 6.19152,-13.475 12.94537,-28.325 15.00856,-33 2.06319,-4.675 6.32339,-13.9 9.46712,-20.5 3.14373,-6.6 10.88296,-23.25 17.19829,-37 6.31533,-13.75 12.60677,-26.48021 13.98097,-28.28935 3.59958,-4.73888 9.61147,-8.37458 14.81843,-8.96148 2.48506,-0.2801 4.5183,-0.10792 4.5183,0.38262 0,0.76188 -26.49687,58.56613 -37.29835,81.36821 -1.95404,4.125 -11.74312,25.5 -21.75351,47.5 -10.0104,22 -19.50037,42.5875 -21.08883,45.75 l -2.8881,5.75 h -7.95042 c -6.74674,0 -8.10216,-0.28352 -8.95263,-1.87265 z"
       id="path24"
       inkscape:connector-curvature="0" />
    <path
       style="fill:#8e8e8e"
       d="M 181.02958,300.75 C 169.88286,276.4125 157.62884,249.75 153.79842,241.5 134.28022,199.46155 119,166.13274 119,165.59865 119,165.26939 120.36496,165 122.03324,165 c 4.27143,0 12.3693,4.35809 15.58401,8.38696 2.35394,2.9501 16.49618,32.46694 35.03024,73.11304 27.3076,59.88691 36.90603,80.33083 37.4276,79.71792 0.33601,-0.39486 4.3401,-9.49292 8.89798,-20.21792 4.55788,-10.725 9.73383,-22.65 11.50212,-26.5 1.76828,-3.85 3.76965,-8.6875 4.44748,-10.75 1.4024,-4.26715 2.6246,-4.7703 3.64372,-1.5 0.38564,1.2375 2.03213,5.0807 3.65886,8.54044 1.67681,3.56624 2.68701,7.0308 2.33267,8 -0.34377,0.94026 -6.34216,15.09706 -13.32977,31.45956 L 218.52341,345 h -8.61354 -8.61353 z m 110.74837,40.5 C 290.30066,337.61836 259.89013,268.23717 247.90545,241.15551 244.65745,233.81605 242,227.40355 242,226.90551 242,226.39781 250.04116,226 260.30366,226 c 17.76962,0 18.45793,-0.0769 23.59158,-2.63509 6.28844,-3.13366 10.43391,-8.40001 12.10919,-15.38338 2.22735,-9.28462 -2.27261,-19.87753 -10.65881,-25.09088 -3.71832,-2.31151 -4.67319,-2.40781 -28.84562,-2.90917 -22.51741,-0.46703 -25.44687,-0.7242 -29.5,-2.58979 -4.34415,-1.99953 -12,-9.2999 -12,-11.44281 0,-0.71281 11.05464,-0.95048 34.75,-0.74712 l 34.75,0.29824 6.30263,3.41738 c 23.38957,12.68216 28.00128,42.12082 9.49719,60.62491 -7.19809,7.19808 -15.37892,10.63593 -26.72151,11.22922 l -9.20474,0.48147 18.42162,42.12351 c 10.13188,23.16793 18.7273,42.45548 19.10092,42.86122 0.37363,0.40575 4.11973,-6.79425 8.32467,-16 4.20495,-9.20574 12.78337,-27.98771 19.06315,-41.73771 6.27978,-13.75 13.87403,-30.175 16.87611,-36.5 3.00208,-6.325 9.93169,-21.32055 15.39914,-33.32345 5.46745,-12.00289 11.39102,-23.53505 13.16348,-25.62702 C 378.35928,168.75737 385.48537,165 389.9891,165 c 1.656,0 3.0109,0.24656 3.0109,0.5479 0,0.59017 -31.23515,68.66924 -35.3077,76.95549 -1.3525,2.75186 -5.39732,11.52686 -8.98849,19.5 -5.53563,12.29026 -18.00442,39.55085 -34.18853,74.74661 l -3.7936,8.25 h -8.70915 -8.70915 z"
       id="path22"
       inkscape:connector-curvature="0" />
    <path
       style="fill:#6f6f6f"
       d="m 181.81077,302.25 c -10.7878,-23.5125 -22.65045,-49.5 -26.36144,-57.75 -3.711,-8.25 -7.07728,-15.45 -7.48063,-16 C 147.12671,227.35188 119,166.13572 119,165.4513 c 0,-1.00903 5.29776,-0.35373 8.72829,1.07964 8.91428,3.72462 11.50196,7.39737 22.59018,32.06272 2.44934,5.44849 8.60945,18.68134 13.68912,29.40634 5.07967,10.725 10.90016,23.325 12.93442,28 11.14218,25.60619 32.5222,70.92983 33.14683,70.26817 0.39885,-0.42249 4.63003,-9.99317 9.40263,-21.26817 4.7726,-11.275 9.92001,-23.2 11.43869,-26.5 1.51867,-3.3 3.31556,-7.6875 3.99309,-9.75 1.13017,-3.44044 3.07675,-5.1623 3.07675,-2.72155 0,0.56565 1.61225,4.42596 3.58279,8.57846 l 3.58279,7.55001 -13.32544,31.42154 L 218.5147,345 h -8.54487 -8.54488 z m 107.24707,32.5 C 284.45987,324.08788 267.0631,284.31226 262.05007,273 249.52296,244.73167 243.18554,230.16716 242.57811,228.25 l -0.71289,-2.25 18.31739,-0.01 c 17.26057,-0.009 18.61685,-0.14919 23.50779,-2.42638 14.80534,-6.89326 17.5761,-27.57283 5.10345,-38.0896 -6.50955,-5.48876 -8.34903,-5.82355 -35.29385,-6.42359 -20.81006,-0.46342 -25.51539,-0.83867 -28.07515,-2.23896 C 222.06747,174.97509 215,167.61806 215,165.95974 c 0,-0.69811 11.13677,-0.94105 34.25,-0.74712 l 34.25,0.28738 5.67515,2.66041 c 11.24763,5.27269 19.29889,15.72259 21.90991,28.43734 3.18483,15.50896 -6.07113,32.83938 -21.62998,40.49898 -4.8519,2.38858 -7.96722,3.12814 -15.56398,3.6948 l -9.49789,0.70847 18.35578,42 c 10.09567,23.1 18.7067,42.35201 19.13563,42.78224 0.42892,0.43023 5.65364,-9.91977 11.61048,-23 5.95684,-13.08023 13.00733,-28.42948 15.66776,-34.10944 C 331.82329,263.49284 334,258.66205 334,258.43772 c 0,-0.22433 2.29408,-5.25209 5.09795,-11.1728 2.80387,-5.9207 8.93136,-19.08992 13.61664,-29.26492 21.72941,-47.18962 21.87215,-47.42242 31.55712,-51.46906 3.46946,-1.44963 8.72829,-2.08521 8.72829,-1.05489 0,0.56554 -27.06578,59.45228 -34.25303,74.52395 -2.75393,5.775 -7.33109,15.675 -10.17147,22 -2.84038,6.325 -12.53531,27.5875 -21.54429,47.25 L 310.65125,345 h -8.58658 -8.58659 z"
       id="path20"
       inkscape:connector-curvature="0" />
    <path
       style="fill:#4e4e4e"
       d="M 185.5306,310.2374 C 176.74743,291.13183 166.35304,268.3 162.43194,259.5 c -3.92109,-8.8 -9.28704,-20.5 -11.92433,-26 -4.38609,-9.14708 -29.99115,-64.33306 -31.20249,-67.25 -0.78519,-1.89076 4.49936,-1.52196 9.2757,0.64732 7.43188,3.37537 10.48512,7.76177 20.41879,29.33443 5.13317,11.14754 12.32899,26.56825 15.99071,34.26825 3.66173,7.7 8.05682,17.15 9.76686,21 1.71005,3.85 10.28069,22.65622 19.04588,41.79161 l 15.9367,34.79161 9.57975,-22.29161 c 11.37701,-26.47374 15.67436,-36.58317 16.70223,-39.29161 0.62285,-1.64121 1.3166,-0.74425 3.86723,5 1.70952,3.85 3.58263,7.81946 4.16246,8.82103 0.84669,1.46253 -1.10462,6.87633 -9.91191,27.5 -6.03138,14.12343 -12.01766,28.26584 -13.30284,31.42758 l -2.33668,5.7486 -8.5,-0.0112 -8.5,-0.0112 -15.9694,-34.7374 z M 293.13472,343.25 C 291.76583,340.68969 242,227.04473 242,226.47906 c 0,-0.26348 7.9875,-0.48157 17.75,-0.48464 9.7625,-0.003 19.325,-0.44381 21.25,-0.97944 8.09469,-2.25233 15.96858,-12.78957 15.99023,-21.39896 0.0226,-8.97576 -5.24462,-17.60309 -13.34768,-21.86262 -3.83831,-2.01768 -5.97864,-2.21712 -29.14255,-2.71551 -21.76611,-0.46831 -25.48935,-0.78103 -28.78302,-2.4175 C 222.12218,174.8343 215,167.62424 215,165.77118 c 0,-0.48067 15.30147,-0.73532 34.25,-0.57 l 34.25,0.29882 5.73579,2.68817 c 7.32835,3.43455 15.14149,11.24769 18.57604,18.57604 2.38372,5.08617 2.6878,6.92499 2.68489,16.23579 -0.003,9.63632 -0.2457,10.97937 -2.95035,16.32777 -3.90472,7.72154 -12.698,15.83104 -20.26179,18.68621 -3.30625,1.24804 -9.48817,2.46257 -14.429,2.83479 l -8.64442,0.65123 18.37065,41.96686 c 10.10385,23.08177 18.63202,42.64799 18.95148,43.48048 0.40262,1.04922 1.14084,0.29233 2.40601,-2.46685 1.00385,-2.18927 5.75109,-12.53049 10.54942,-22.98049 4.79834,-10.45 12.91012,-28.225 18.02619,-39.5 5.11607,-11.275 10.19558,-22.3 11.2878,-24.5 1.09223,-2.2 6.11756,-13 11.16741,-24 19.45449,-42.37736 19.85994,-43.02409 29.49815,-47.05119 3.12802,-1.30697 8.53173,-1.99559 8.53173,-1.08723 0,0.19886 -1.75639,4.13636 -3.9031,8.75 -2.1467,4.61363 -9.30266,20.08842 -15.90212,34.38842 -6.59947,14.3 -14.70902,31.85 -18.02122,39 -8.14054,17.57287 -34.79662,75.66494 -40.26337,87.74669 l -4.41019,9.74669 -8.21482,0.003 c -6.80268,0.003 -8.37565,-0.29752 -9.15046,-1.74669 z"
       id="path18"
       inkscape:connector-curvature="0" />
    <path
       style="fill:#2f2f2f"
       d="M 200.65494,342.2897 C 198.26195,337.64566 163.93933,262.97507 160.99155,256 c -1.51085,-3.575 -4.8818,-11 -7.49099,-16.5 -14.16187,-29.85227 -34.35233,-73.98156 -34.00684,-74.32706 0.21908,-0.21907 2.69619,0.15293 5.50469,0.82668 3.74376,0.89811 6.41988,2.46254 10.02872,5.86269 4.40655,4.15171 6.12129,7.25743 16.36366,29.63769 6.29272,13.75 12.54892,27.25 13.90267,30 1.35375,2.75 4.79114,10.175 7.63865,16.5 20.51221,45.56261 36.58247,79.86895 37.11957,79.24186 0.34948,-0.40802 4.15644,-9.06686 8.45993,-19.24186 4.30348,-10.175 9.48042,-22.1 11.50429,-26.5 2.02388,-4.4 4.23315,-9.6875 4.90949,-11.75 1.11662,-3.40513 3.07461,-5.1709 3.07461,-2.77277 0,0.53748 1.53099,4.18214 3.4022,8.09926 l 3.40221,7.12203 -8.93984,21.15074 C 230.94767,314.98217 225.00387,329 222.65613,334.5 l -4.26861,10 -8.14755,0.2897 c -8.02735,0.28542 -8.16876,0.24853 -9.58503,-2.5 z m 90.5202,-3.49145 c -1.47133,-3.41096 -13.06791,-29.84846 -25.77018,-58.75 -12.70228,-28.90154 -22.91322,-52.88575 -22.69099,-53.29825 0.22224,-0.4125 8.72043,-0.75 18.88489,-0.75 16.3204,0 18.9256,-0.22691 22.28566,-1.94109 4.46183,-2.27625 9.79458,-8.04663 11.74058,-12.70406 1.92034,-4.59603 1.68149,-13.08321 -0.50357,-17.89356 -2.48603,-5.47293 -10.04889,-11.95377 -15.57265,-13.34466 C 276.96452,179.46587 266.10695,179 253.52506,179 c -23.2066,0 -25.40168,-0.38031 -32.22228,-5.58263 -1.81769,-1.38642 -4.00511,-3.87485 -4.86094,-5.52985 l -1.55607,-3.00909 33.80712,0.31079 L 282.5,165.5 l 6.72477,3.18565 c 8.07254,3.82412 14.61204,10.23585 18.45825,18.09758 2.49164,5.09296 2.79793,6.80795 2.8069,15.71677 0.009,8.75103 -0.3222,10.70881 -2.65033,15.67515 C 301.12609,232.49631 286.78399,241 269.34379,241 c -4.05164,0 -5.41951,0.33874 -5.04759,1.25 3.31622,8.1252 37.04848,84.43867 37.56074,84.97474 0.56962,0.5961 17.62914,-35.55471 34.27564,-72.63345 10.72741,-23.89445 36.36145,-78.37002 37.73417,-80.18988 2.66938,-3.53888 8.54118,-7.22353 13.50185,-8.47264 2.58941,-0.65202 4.88836,-1.00515 5.10878,-0.78472 0.36512,0.36511 -23.83345,53.51339 -33.62683,73.85595 -2.25066,4.675 -5.78818,12.325 -7.86116,17 -2.07299,4.675 -8.93552,19.75 -15.25007,33.5 -6.31455,13.75 -12.50106,27.25 -13.7478,30 -1.24673,2.75 -4.4255,9.6125 -7.06393,15.25 L 310.13044,345 h -8.14008 -8.14007 z"
       id="path16"
       inkscape:connector-curvature="0" />
    <path
       style="fill:#000000"
       d="m 199.45955,339.50444 c -1.33672,-3.02255 -9.02222,-19.78505 -17.07888,-37.25 C 174.32401,284.7895 164.94016,264.2 161.52768,256.5 c -3.41248,-7.7 -8.99491,-19.85 -12.4054,-27 -11.51166,-24.13389 -29.81415,-63.99755 -29.5414,-64.34251 0.14895,-0.18839 2.67877,0.35749 5.62182,1.21306 9.83158,2.85812 12.36722,6.06241 22.81392,28.83001 5.12282,11.16469 12.32045,26.59944 15.99475,34.29944 3.67429,7.7 8.37382,17.825 10.44339,22.5 5.72296,12.92772 12.05568,26.87627 17.12452,37.71869 2.51503,5.37972 7.51811,16.19381 11.11796,24.03131 3.59985,7.8375 6.82814,14.24413 7.17397,14.23695 0.34584,-0.007 2.16469,-3.71968 4.04191,-8.25 1.87722,-4.53032 4.20747,-10.03695 5.17833,-12.23695 3.28123,-7.43532 11.19305,-25.95214 14.47238,-33.87115 l 3.25951,-7.87116 1.42532,2.87116 c 0.78392,1.57913 2.45735,5.47445 3.71872,8.65625 l 2.2934,5.7851 -13.24371,30.9649 L 217.77336,345 h -7.94171 -7.94171 z M 293.0606,342.25 C 292.36736,340.7375 287.96734,330.725 283.28278,320 278.59823,309.275 267.61819,284.21419 258.8827,264.30931 250.14722,244.40443 243,227.86693 243,227.55931 243,227.25169 250.35348,227 259.34107,227 c 23.40359,0 29.82404,-2.50636 35.34916,-13.79928 6.20861,-12.68996 1.0841,-26.28222 -12.19023,-32.33338 -3.47946,-1.58613 -6.87187,-1.82627 -26.0685,-1.84538 -25.45523,-0.0253 -29.73805,-0.82297 -35.73534,-6.65537 -2.09211,-2.0346 -4.26265,-4.55657 -4.82342,-5.60439 -0.99486,-1.8589 -0.19918,-1.89732 32.80383,-1.58366 L 282.5,165.5 l 6.58912,3.2243 c 16.56323,8.10501 24.94972,25.81227 20.497,43.27744 C 305.181,229.2802 290.71592,240 271.80583,240 266.5417,240 264,240.37848 264,241.16237 c 0,0.6393 2.29503,6.3768 5.10007,12.75 8.13249,18.47743 11.9256,27.13533 22.47977,51.31085 5.45609,12.49777 10.27642,22.61651 10.71185,22.4861 0.43544,-0.13041 2.73294,-4.50586 5.10556,-9.72322 2.37262,-5.21735 5.77176,-12.6361 7.55364,-16.4861 1.78188,-3.85 6.53115,-14.2 10.55394,-23 31.9895,-69.9783 47.57883,-102.96025 49.7795,-105.31725 C 379.53286,168.6324 392,163.19833 392,165.89686 c 0,0.89383 -21.61765,48.25107 -30.17479,66.10314 -2.76816,5.775 -10.55443,22.65 -17.30281,37.5 -6.74838,14.85 -16.20565,35.55 -21.01615,46 -4.8105,10.45 -9.83053,21.3625 -11.15562,24.25 l -2.40925,5.25 h -7.81017 c -7.54797,0 -7.8525,-0.0923 -9.07061,-2.75 z"
       id="path14"
       inkscape:connector-curvature="0" />
  </g>
</svg>
